<?xml version="1.0" encoding="UTF-8"?>
<svg version="1.1" viewBox="0 0 512 512" xmlns="http://www.w3.org/2000/svg">
 <g transform="matrix(.49054 0 0 .49054 14.569 8.6418)">
  <g transform="matrix(1.0322 0 0 1.0322 -15.859 -32.013)">
   <path d="m787.45 45.554c-3.269 0.08334-7.0588 0.80088-11.446 2.2764-54.862 1.3527-104.78 33.915-134.52 79.125-53.269 75.449-48.665 171.3-49.478 259.49 2.8713 56.629-38.995 120.2-100.75 116.54-52.617 1.776-91.331-46.41-96.702-95.357-2.1944-85.497 3.9389-175.69-35.216-254.61-30.706-63.319-96.759-112.03-169.33-105.55l-8.187 3.7368-3.7822 5.7437c-2.336 62.453-0.47934 125.33-0.37207 187.78 0.0448 94.386 0.53938 188.82 0.34131 283.27 4.8498 53.718 73.566 41.164 107 65.459 56.28 39.254 67.08 111.23 80.75 173.85 15.576 71.411 30.883 147.44 79.679 204.28 25.601 32.707 76.876 27.344 99.006-6.3486 48.294-63.378 62.839-144.58 78.977-220.73 12.5-61.671 31.712-137.13 97.318-161.49 30.989-10.614 79.859-10.594 85.835-51.926 1.013-145.48 0.14653-291.02 0.43506-436.52 0.75547-19.114 3.3287-49.606-19.554-49.022z" fill="#8b5a29"/>
  </g>
 </g>
</svg>
